<?xml version="1.0" encoding="UTF-8" standalone="no"?>
<!DOCTYPE svg PUBLIC "-//W3C//DTD SVG 1.1//EN"
 "http://www.w3.org/Graphics/SVG/1.1/DTD/svg11.dtd">
<!-- Generated by graphviz version 2.40.1 (20161225.0304)
 -->
<!-- Title: %3 Pages: 1 -->
<svg width="497pt" height="332pt"
 viewBox="0.00 0.00 497.45 332.00" xmlns="http://www.w3.org/2000/svg" xmlns:xlink="http://www.w3.org/1999/xlink">
<g id="graph0" class="graph" transform="scale(1 1) rotate(0) translate(4 328)">
<title>%3</title>
<polygon fill="#ffffff" stroke="transparent" points="-4,4 -4,-328 493.4517,-328 493.4517,4 -4,4"/>
<!-- n1* -->
<g id="node1" class="node">
<title>n1*</title>
<ellipse fill="none" stroke="#ff0000" cx="371.4429" cy="-306" rx="27" ry="18"/>
<text text-anchor="middle" x="371.4429" y="-302.3" font-family="Times,serif" font-size="14.00" fill="#000000">n1*</text>
</g>
<!-- n2* -->
<g id="node2" class="node">
<title>n2*</title>
<ellipse fill="none" stroke="#ff0000" cx="335.4429" cy="-234" rx="27" ry="18"/>
<text text-anchor="middle" x="335.4429" y="-230.3" font-family="Times,serif" font-size="14.00" fill="#000000">n2*</text>
</g>
<!-- n1*&#45;&gt;n2* -->
<g id="edge1" class="edge">
<title>n1*&#45;&gt;n2*</title>
<path fill="none" stroke="#000000" d="M362.7283,-288.5708C358.4833,-280.0807 353.2893,-269.6929 348.5766,-260.2674"/>
<polygon fill="#000000" stroke="#000000" points="351.68,-258.6477 344.0773,-251.2687 345.419,-261.7782 351.68,-258.6477"/>
</g>
<!-- n3* -->
<g id="node3" class="node">
<title>n3*</title>
<ellipse fill="none" stroke="#ff0000" cx="407.4429" cy="-234" rx="27" ry="18"/>
<text text-anchor="middle" x="407.4429" y="-230.3" font-family="Times,serif" font-size="14.00" fill="#000000">n3*</text>
</g>
<!-- n1*&#45;&gt;n3* -->
<g id="edge2" class="edge">
<title>n1*&#45;&gt;n3*</title>
<path fill="none" stroke="#000000" d="M380.1575,-288.5708C384.4026,-280.0807 389.5965,-269.6929 394.3092,-260.2674"/>
<polygon fill="#000000" stroke="#000000" points="397.4669,-261.7782 398.8086,-251.2687 391.2059,-258.6477 397.4669,-261.7782"/>
</g>
<!-- n4* -->
<g id="node4" class="node">
<title>n4*</title>
<ellipse fill="none" stroke="#ff0000" cx="254.4429" cy="-162" rx="27" ry="18"/>
<text text-anchor="middle" x="254.4429" y="-158.3" font-family="Times,serif" font-size="14.00" fill="#000000">n4*</text>
</g>
<!-- n2*&#45;&gt;n4* -->
<g id="edge3" class="edge">
<title>n2*&#45;&gt;n4*</title>
<path fill="none" stroke="#000000" d="M319.0514,-219.4297C307.4136,-209.0851 291.6001,-195.0286 278.531,-183.4116"/>
<polygon fill="#000000" stroke="#000000" points="280.6095,-180.5763 270.8101,-176.5486 275.9589,-185.8082 280.6095,-180.5763"/>
</g>
<!-- n5* -->
<g id="node5" class="node">
<title>n5*</title>
<polygon fill="none" stroke="#ff0000" points="403.4429,-180 349.4429,-180 349.4429,-144 403.4429,-144 403.4429,-180"/>
<text text-anchor="middle" x="376.4429" y="-158.3" font-family="Times,serif" font-size="14.00" fill="#000000">n5*</text>
</g>
<!-- n2*&#45;&gt;n5* -->
<g id="edge4" class="edge">
<title>n2*&#45;&gt;n5*</title>
<path fill="none" stroke="#000000" d="M345.1593,-216.937C349.8835,-208.6409 355.6758,-198.469 360.9866,-189.1428"/>
<polygon fill="#000000" stroke="#000000" points="364.1725,-190.621 366.0795,-180.1992 358.0896,-187.1571 364.1725,-190.621"/>
</g>
<!-- n6* -->
<g id="node6" class="node">
<title>n6*</title>
<polygon fill="none" stroke="#ff0000" points="154.4429,-108 100.4429,-108 100.4429,-72 154.4429,-72 154.4429,-108"/>
<text text-anchor="middle" x="127.4429" y="-86.3" font-family="Times,serif" font-size="14.00" fill="#000000">n6*</text>
</g>
<!-- n4*&#45;&gt;n6* -->
<g id="edge5" class="edge">
<title>n4*&#45;&gt;n6*</title>
<path fill="none" stroke="#000000" d="M233.7555,-150.2717C214.7681,-139.5072 186.2215,-123.3233 163.4886,-110.4354"/>
<polygon fill="#000000" stroke="#000000" points="165.2044,-107.3848 154.779,-105.4976 161.7521,-113.4743 165.2044,-107.3848"/>
</g>
<!-- n7* -->
<g id="node7" class="node">
<title>n7*</title>
<polygon fill="none" stroke="#ff0000" points="281.4429,-108 227.4429,-108 227.4429,-72 281.4429,-72 281.4429,-108"/>
<text text-anchor="middle" x="254.4429" y="-86.3" font-family="Times,serif" font-size="14.00" fill="#000000">n7*</text>
</g>
<!-- n4*&#45;&gt;n7* -->
<g id="edge6" class="edge">
<title>n4*&#45;&gt;n7*</title>
<path fill="none" stroke="#000000" d="M254.4429,-143.8314C254.4429,-136.131 254.4429,-126.9743 254.4429,-118.4166"/>
<polygon fill="#000000" stroke="#000000" points="257.943,-118.4132 254.4429,-108.4133 250.943,-118.4133 257.943,-118.4132"/>
</g>
<!-- n8* -->
<g id="node8" class="node">
<title>n8*</title>
<ellipse fill="none" stroke="#ff0000" cx="376.4429" cy="-90" rx="27" ry="18"/>
<text text-anchor="middle" x="376.4429" y="-86.3" font-family="Times,serif" font-size="14.00" fill="#000000">n8*</text>
</g>
<!-- n5*&#45;&gt;n8* -->
<g id="edge7" class="edge">
<title>n5*&#45;&gt;n8*</title>
<path fill="none" stroke="#000000" d="M376.4429,-143.8314C376.4429,-136.131 376.4429,-126.9743 376.4429,-118.4166"/>
<polygon fill="#000000" stroke="#000000" points="379.943,-118.4132 376.4429,-108.4133 372.943,-118.4133 379.943,-118.4132"/>
</g>
<!-- n9* -->
<g id="node9" class="node">
<title>n9*</title>
<polygon fill="none" stroke="#00ff00" points="455.4429,-108 421.4253,-90 455.4429,-72 489.4606,-90 455.4429,-108"/>
<text text-anchor="middle" x="455.4429" y="-86.3" font-family="Times,serif" font-size="14.00" fill="#000000">n9*</text>
</g>
<!-- n5*&#45;&gt;n9* -->
<g id="edge8" class="edge">
<title>n5*&#45;&gt;n9*</title>
<path fill="none" stroke="#000000" d="M396.378,-143.8314C408.2623,-133 423.3079,-119.2876 435.2395,-108.4133"/>
<polygon fill="#000000" stroke="#000000" points="437.8918,-110.7315 442.9251,-101.4086 433.1766,-105.5578 437.8918,-110.7315"/>
</g>
<!-- n10* -->
<g id="node10" class="node">
<title>n10*</title>
<polygon fill="none" stroke="#00ff00" points="40.4429,-36 .057,-18 40.4429,0 80.8288,-18 40.4429,-36"/>
<text text-anchor="middle" x="40.4429" y="-14.3" font-family="Times,serif" font-size="14.00" fill="#000000">n10*</text>
</g>
<!-- n6*&#45;&gt;n10* -->
<g id="edge9" class="edge">
<title>n6*&#45;&gt;n10*</title>
<path fill="none" stroke="#000000" d="M105.4891,-71.8314C92.4406,-61.0326 75.9316,-47.37 62.8108,-36.5114"/>
<polygon fill="#000000" stroke="#000000" points="64.6837,-33.5182 54.7483,-29.8389 60.2207,-38.911 64.6837,-33.5182"/>
</g>
<!-- n11* -->
<g id="node11" class="node">
<title>n11*</title>
<ellipse fill="none" stroke="#ff0000" cx="127.4429" cy="-18" rx="28.6953" ry="18"/>
<text text-anchor="middle" x="127.4429" y="-14.3" font-family="Times,serif" font-size="14.00" fill="#000000">n11*</text>
</g>
<!-- n6*&#45;&gt;n11* -->
<g id="edge10" class="edge">
<title>n6*&#45;&gt;n11*</title>
<path fill="none" stroke="#000000" d="M127.4429,-71.8314C127.4429,-64.131 127.4429,-54.9743 127.4429,-46.4166"/>
<polygon fill="#000000" stroke="#000000" points="130.943,-46.4132 127.4429,-36.4133 123.943,-46.4133 130.943,-46.4132"/>
</g>
<!-- n12* -->
<g id="node12" class="node">
<title>n12*</title>
<polygon fill="none" stroke="#00ff00" points="214.4429,-36 174.057,-18 214.4429,0 254.8288,-18 214.4429,-36"/>
<text text-anchor="middle" x="214.4429" y="-14.3" font-family="Times,serif" font-size="14.00" fill="#000000">n12*</text>
</g>
<!-- n7*&#45;&gt;n12* -->
<g id="edge11" class="edge">
<title>n7*&#45;&gt;n12*</title>
<path fill="none" stroke="#000000" d="M244.3492,-71.8314C239.2279,-62.613 232.9472,-51.3078 227.4659,-41.4414"/>
<polygon fill="#000000" stroke="#000000" points="230.4355,-39.5796 222.5195,-32.5378 224.3164,-42.9791 230.4355,-39.5796"/>
</g>
<!-- n13* -->
<g id="node13" class="node">
<title>n13*</title>
<ellipse fill="none" stroke="#ff0000" cx="301.4429" cy="-18" rx="28.6953" ry="18"/>
<text text-anchor="middle" x="301.4429" y="-14.3" font-family="Times,serif" font-size="14.00" fill="#000000">n13*</text>
</g>
<!-- n7*&#45;&gt;n13* -->
<g id="edge12" class="edge">
<title>n7*&#45;&gt;n13*</title>
<path fill="none" stroke="#000000" d="M266.303,-71.8314C271.9084,-63.2444 278.6958,-52.8466 284.805,-43.4878"/>
<polygon fill="#000000" stroke="#000000" points="287.8584,-45.2133 290.3938,-34.9263 281.9967,-41.3869 287.8584,-45.2133"/>
</g>
<!-- n14* -->
<g id="node14" class="node">
<title>n14*</title>
<ellipse fill="none" stroke="#ff0000" cx="376.4429" cy="-18" rx="28.6953" ry="18"/>
<text text-anchor="middle" x="376.4429" y="-14.3" font-family="Times,serif" font-size="14.00" fill="#000000">n14*</text>
</g>
<!-- n8*&#45;&gt;n14* -->
<g id="edge13" class="edge">
<title>n8*&#45;&gt;n14*</title>
<path fill="none" stroke="#000000" d="M376.4429,-71.8314C376.4429,-64.131 376.4429,-54.9743 376.4429,-46.4166"/>
<polygon fill="#000000" stroke="#000000" points="379.943,-46.4132 376.4429,-36.4133 372.943,-46.4133 379.943,-46.4132"/>
</g>
<!-- n15* -->
<g id="node15" class="node">
<title>n15*</title>
<ellipse fill="none" stroke="#ff0000" cx="451.4429" cy="-18" rx="28.6953" ry="18"/>
<text text-anchor="middle" x="451.4429" y="-14.3" font-family="Times,serif" font-size="14.00" fill="#000000">n15*</text>
</g>
<!-- n8*&#45;&gt;n15* -->
<g id="edge14" class="edge">
<title>n8*&#45;&gt;n15*</title>
<path fill="none" stroke="#000000" d="M391.983,-75.0816C402.4715,-65.0125 416.4989,-51.5463 428.2949,-40.2221"/>
<polygon fill="#000000" stroke="#000000" points="430.8747,-42.5973 435.6647,-33.147 426.027,-37.5475 430.8747,-42.5973"/>
</g>
</g>
</svg>
