<?xml version="1.0" encoding="UTF-8" standalone="no"?>
<!DOCTYPE svg PUBLIC "-//W3C//DTD SVG 1.1//EN"
 "http://www.w3.org/Graphics/SVG/1.1/DTD/svg11.dtd">
<!-- Generated by graphviz version 2.40.1 (20161225.0304)
 -->
<!-- Title: %3 Pages: 1 -->
<svg width="452pt" height="332pt"
 viewBox="0.00 0.00 451.58 332.00" xmlns="http://www.w3.org/2000/svg" xmlns:xlink="http://www.w3.org/1999/xlink">
<g id="graph0" class="graph" transform="scale(1 1) rotate(0) translate(4 328)">
<title>%3</title>
<polygon fill="#ffffff" stroke="transparent" points="-4,4 -4,-328 447.5835,-328 447.5835,4 -4,4"/>
<!-- n1 -->
<g id="node1" class="node">
<title>n1</title>
<ellipse fill="none" stroke="#c0c0c0" cx="341.0088" cy="-306" rx="27" ry="18"/>
<text text-anchor="middle" x="341.0088" y="-302.3" font-family="Times,serif" font-size="14.00" fill="#000000">n1</text>
</g>
<!-- n2 -->
<g id="node2" class="node">
<title>n2</title>
<ellipse fill="none" stroke="#c0c0c0" cx="305.0088" cy="-234" rx="27" ry="18"/>
<text text-anchor="middle" x="305.0088" y="-230.3" font-family="Times,serif" font-size="14.00" fill="#000000">n2</text>
</g>
<!-- n1&#45;&gt;n2 -->
<g id="edge1" class="edge">
<title>n1&#45;&gt;n2</title>
<path fill="none" stroke="#000000" d="M332.2942,-288.5708C328.0491,-280.0807 322.8552,-269.6929 318.1425,-260.2674"/>
<polygon fill="#000000" stroke="#000000" points="321.2459,-258.6477 313.6432,-251.2687 314.9849,-261.7782 321.2459,-258.6477"/>
</g>
<!-- n3 -->
<g id="node3" class="node">
<title>n3</title>
<ellipse fill="none" stroke="#c0c0c0" cx="377.0088" cy="-234" rx="27" ry="18"/>
<text text-anchor="middle" x="377.0088" y="-230.3" font-family="Times,serif" font-size="14.00" fill="#000000">n3</text>
</g>
<!-- n1&#45;&gt;n3 -->
<g id="edge2" class="edge">
<title>n1&#45;&gt;n3</title>
<path fill="none" stroke="#000000" d="M349.7234,-288.5708C353.9685,-280.0807 359.1624,-269.6929 363.8751,-260.2674"/>
<polygon fill="#000000" stroke="#000000" points="367.0328,-261.7782 368.3745,-251.2687 360.7718,-258.6477 367.0328,-261.7782"/>
</g>
<!-- n4 -->
<g id="node4" class="node">
<title>n4</title>
<ellipse fill="none" stroke="#c0c0c0" cx="230.0088" cy="-162" rx="27" ry="18"/>
<text text-anchor="middle" x="230.0088" y="-158.3" font-family="Times,serif" font-size="14.00" fill="#000000">n4</text>
</g>
<!-- n2&#45;&gt;n4 -->
<g id="edge3" class="edge">
<title>n2&#45;&gt;n4</title>
<path fill="none" stroke="#000000" d="M289.4688,-219.0816C278.9098,-208.945 264.7644,-195.3654 252.9196,-183.9944"/>
<polygon fill="#000000" stroke="#000000" points="255.1667,-181.2998 245.529,-176.8993 250.319,-186.3495 255.1667,-181.2998"/>
</g>
<!-- n5 -->
<g id="node5" class="node">
<title>n5</title>
<polygon fill="none" stroke="#c0c0c0" points="370.0088,-180 316.0088,-180 316.0088,-144 370.0088,-144 370.0088,-180"/>
<text text-anchor="middle" x="343.0088" y="-158.3" font-family="Times,serif" font-size="14.00" fill="#000000">n5</text>
</g>
<!-- n2&#45;&gt;n5 -->
<g id="edge4" class="edge">
<title>n2&#45;&gt;n5</title>
<path fill="none" stroke="#000000" d="M314.0143,-216.937C318.3928,-208.6409 323.7613,-198.469 328.6835,-189.1428"/>
<polygon fill="#000000" stroke="#000000" points="331.8314,-190.6767 333.4037,-180.1992 325.6407,-187.4094 331.8314,-190.6767"/>
</g>
<!-- n6 -->
<g id="node6" class="node">
<title>n6</title>
<polygon fill="none" stroke="#c0c0c0" points="140.0088,-108 86.0088,-108 86.0088,-72 140.0088,-72 140.0088,-108"/>
<text text-anchor="middle" x="113.0088" y="-86.3" font-family="Times,serif" font-size="14.00" fill="#000000">n6</text>
</g>
<!-- n4&#45;&gt;n6 -->
<g id="edge5" class="edge">
<title>n4&#45;&gt;n6</title>
<path fill="none" stroke="#000000" d="M210.1614,-149.7862C193.4644,-139.5111 169.1636,-124.5568 149.0434,-112.1751"/>
<polygon fill="#000000" stroke="#000000" points="150.7749,-109.1311 140.424,-106.8709 147.1062,-115.0927 150.7749,-109.1311"/>
</g>
<!-- n7 -->
<g id="node7" class="node">
<title>n7</title>
<polygon fill="none" stroke="#c0c0c0" points="257.0088,-108 203.0088,-108 203.0088,-72 257.0088,-72 257.0088,-108"/>
<text text-anchor="middle" x="230.0088" y="-86.3" font-family="Times,serif" font-size="14.00" fill="#000000">n7</text>
</g>
<!-- n4&#45;&gt;n7 -->
<g id="edge6" class="edge">
<title>n4&#45;&gt;n7</title>
<path fill="none" stroke="#000000" d="M230.0088,-143.8314C230.0088,-136.131 230.0088,-126.9743 230.0088,-118.4166"/>
<polygon fill="#000000" stroke="#000000" points="233.5089,-118.4132 230.0088,-108.4133 226.5089,-118.4133 233.5089,-118.4132"/>
</g>
<!-- n8 -->
<g id="node8" class="node">
<title>n8</title>
<ellipse fill="none" stroke="#c0c0c0" cx="343.0088" cy="-90" rx="27" ry="18"/>
<text text-anchor="middle" x="343.0088" y="-86.3" font-family="Times,serif" font-size="14.00" fill="#000000">n8</text>
</g>
<!-- n5&#45;&gt;n8 -->
<g id="edge7" class="edge">
<title>n5&#45;&gt;n8</title>
<path fill="none" stroke="#000000" d="M343.0088,-143.8314C343.0088,-136.131 343.0088,-126.9743 343.0088,-118.4166"/>
<polygon fill="#000000" stroke="#000000" points="346.5089,-118.4132 343.0088,-108.4133 339.5089,-118.4133 346.5089,-118.4132"/>
</g>
<!-- n9 -->
<g id="node9" class="node">
<title>n9</title>
<polygon fill="none" stroke="#00ff00" points="416.0088,-108 388.3592,-90 416.0088,-72 443.6585,-90 416.0088,-108"/>
<text text-anchor="middle" x="416.0088" y="-86.3" font-family="Times,serif" font-size="14.00" fill="#000000">n9</text>
</g>
<!-- n5&#45;&gt;n9 -->
<g id="edge8" class="edge">
<title>n5&#45;&gt;n9</title>
<path fill="none" stroke="#000000" d="M361.4298,-143.8314C372.5488,-132.8646 386.6625,-118.9443 397.7519,-108.0068"/>
<polygon fill="#000000" stroke="#000000" points="400.2101,-110.4983 404.872,-100.9842 395.2946,-105.5145 400.2101,-110.4983"/>
</g>
<!-- n10 -->
<g id="node10" class="node">
<title>n10</title>
<polygon fill="none" stroke="#00ff00" points="34.0088,-36 -.0088,-18 34.0088,0 68.0265,-18 34.0088,-36"/>
<text text-anchor="middle" x="34.0088" y="-14.3" font-family="Times,serif" font-size="14.00" fill="#000000">n10</text>
</g>
<!-- n6&#45;&gt;n10 -->
<g id="edge9" class="edge">
<title>n6&#45;&gt;n10</title>
<path fill="none" stroke="#000000" d="M93.0738,-71.8314C81.1894,-61 66.1438,-47.2876 54.2123,-36.4133"/>
<polygon fill="#000000" stroke="#000000" points="56.2752,-33.5578 46.5266,-29.4086 51.5599,-38.7315 56.2752,-33.5578"/>
</g>
<!-- n11 -->
<g id="node11" class="node">
<title>n11</title>
<ellipse fill="none" stroke="#c0c0c0" cx="113.0088" cy="-18" rx="27" ry="18"/>
<text text-anchor="middle" x="113.0088" y="-14.3" font-family="Times,serif" font-size="14.00" fill="#000000">n11</text>
</g>
<!-- n6&#45;&gt;n11 -->
<g id="edge10" class="edge">
<title>n6&#45;&gt;n11</title>
<path fill="none" stroke="#000000" d="M113.0088,-71.8314C113.0088,-64.131 113.0088,-54.9743 113.0088,-46.4166"/>
<polygon fill="#000000" stroke="#000000" points="116.5089,-46.4132 113.0088,-36.4133 109.5089,-46.4133 116.5089,-46.4132"/>
</g>
<!-- n12 -->
<g id="node12" class="node">
<title>n12</title>
<polygon fill="none" stroke="#00ff00" points="192.0088,-36 157.9912,-18 192.0088,0 226.0265,-18 192.0088,-36"/>
<text text-anchor="middle" x="192.0088" y="-14.3" font-family="Times,serif" font-size="14.00" fill="#000000">n12</text>
</g>
<!-- n7&#45;&gt;n12 -->
<g id="edge11" class="edge">
<title>n7&#45;&gt;n12</title>
<path fill="none" stroke="#000000" d="M220.4198,-71.8314C215.4879,-62.4867 209.4242,-50.9976 204.1671,-41.0367"/>
<polygon fill="#000000" stroke="#000000" points="207.2001,-39.2848 199.4371,-32.0747 201.0094,-42.5522 207.2001,-39.2848"/>
</g>
<!-- n13 -->
<g id="node13" class="node">
<title>n13</title>
<ellipse fill="none" stroke="#c0c0c0" cx="271.0088" cy="-18" rx="27" ry="18"/>
<text text-anchor="middle" x="271.0088" y="-14.3" font-family="Times,serif" font-size="14.00" fill="#000000">n13</text>
</g>
<!-- n7&#45;&gt;n13 -->
<g id="edge12" class="edge">
<title>n7&#45;&gt;n13</title>
<path fill="none" stroke="#000000" d="M240.3548,-71.8314C245.1942,-63.3329 251.0436,-53.0608 256.3299,-43.7776"/>
<polygon fill="#000000" stroke="#000000" points="259.4633,-45.3481 261.3702,-34.9263 253.3803,-41.8842 259.4633,-45.3481"/>
</g>
<!-- n14 -->
<g id="node14" class="node">
<title>n14</title>
<ellipse fill="none" stroke="#c0c0c0" cx="343.0088" cy="-18" rx="27" ry="18"/>
<text text-anchor="middle" x="343.0088" y="-14.3" font-family="Times,serif" font-size="14.00" fill="#000000">n14</text>
</g>
<!-- n8&#45;&gt;n14 -->
<g id="edge13" class="edge">
<title>n8&#45;&gt;n14</title>
<path fill="none" stroke="#000000" d="M343.0088,-71.8314C343.0088,-64.131 343.0088,-54.9743 343.0088,-46.4166"/>
<polygon fill="#000000" stroke="#000000" points="346.5089,-46.4132 343.0088,-36.4133 339.5089,-46.4133 346.5089,-46.4132"/>
</g>
<!-- n15 -->
<g id="node15" class="node">
<title>n15</title>
<ellipse fill="none" stroke="#c0c0c0" cx="415.0088" cy="-18" rx="27" ry="18"/>
<text text-anchor="middle" x="415.0088" y="-14.3" font-family="Times,serif" font-size="14.00" fill="#000000">n15</text>
</g>
<!-- n8&#45;&gt;n15 -->
<g id="edge14" class="edge">
<title>n8&#45;&gt;n15</title>
<path fill="none" stroke="#000000" d="M358.2782,-74.7307C368.2058,-64.803 381.3241,-51.6847 392.4452,-40.5637"/>
<polygon fill="#000000" stroke="#000000" points="395.1653,-42.7933 399.7615,-33.2473 390.2155,-37.8436 395.1653,-42.7933"/>
</g>
</g>
</svg>
